<mxfile host="65bd71144e">
    <diagram id="dhRr8iUcLxEZbOQUaddT" name="Page-1">
        <mxGraphModel dx="884" dy="695" grid="1" gridSize="10" guides="1" tooltips="1" connect="1" arrows="1" fold="1" page="1" pageScale="1" pageWidth="850" pageHeight="1100" math="0" shadow="0">
            <root>
                <mxCell id="0"/>
                <mxCell id="1" parent="0"/>
                <mxCell id="3" value="" style="shape=stencil(7VvJclw3DPwaXVngTp4d5z9cZTlWxbFcsrL9fcDIfOZrzDQ1R1f5Js2ghxvQWAjexTdfP777cn8X5Ovz0+Pv938/vH/+eBd/uQvh4fPH+6eHZ/3rLr69i28+PD7d//b0+Ofn9y//f3k3JMdffzz+NX7hnxdccNIHKMi/Lx+Ia+n/D359Ef/08Pkk7sNJPLgSqHg5iac53BXxICfx7HKh4ufJ1Dm7a+L+JN6deDr3ehL33nk6eX+evI+uNCYv8SxfXCbz8a6fT8p3V4XKn/c+xLm91+TP8wnF9Urlz9sZVXXIelX+vD8xuUpO17t2Xm9srpD9N/JJdZOu99tsD/niEl0vyGdxnq4X5aOrRD1V/qxvuTrh8znLF3GRrxfko4t8/iBfXCDUYOXb1JDXyVfvEj/f837WODX8dfpWd/Pv6SzfXOTyZ31r4gK39/PvN/2Ey5/X21R/MuWfs/227AJnT5CvLkYmH8/23pqrdP7pvP9d7YXOP53X2/38hWvyCeUZP4R5mos84zfD//3wN6/TH5VPVP9LQ/lM9se72FGe+V6Pnn0jr+wtt8xHXI63rFdQfzb7qdpy03kJ2tdGH1ReUJ7pm+5PRn0ONH4A/W99/sJF+YTxgMqz+R/RwiKfCV81jE9Unvm7jv5U5SPzRyaAUEBggHRhRp4xenGlIEAYoJs9atNKL5+ZmogBNHbI2exSo1GZbmvMCMjkmGNEPR0AYjexzAh+BZApJXG9GQDxBCnPQHgBMFVNfTLJK89BQyVcA9el3Iz3U+shgBIMnQrNHjT6yQUBhdhzVYI0Do0F4DWhaiiARYy1Tt1cKZWM0C5xPPMJGnJkMwIjYY05gAR6pFGIKgK6qUjDQD3XHhBQyAiD1g2AJR76dTZTYplNz8b1RKre42vjmyvj4jhT1UX5Otml4fuAKpXIyEmP3zvvkoaDjJeGuQAJaP5E7GG4GwDkGRJcUw0cgWewOmMBmvHTpC4DCpYEap/6e029IUjVJIGZ6AAIAgofIVQEsLB8ADwCWF1jAM4mqjzCChXjmAyARQIKyIIAVvdRQIUR1Ikx1ihoDwpgHkgBMRgA06UyyX0BZLZLR7VkHYHFY9WcdKEkMAzS7FJnU6pmW+s8+2sWV2CXmkvsHLqJl4Qqn7JGA15SH8doxqa1kfNSxJNW7WLK19MsgyxEFhggzzrCQpWBcWtBA2rcpnudTLrG6kRbe0O6H8EJO4cjV1izK5atis2XIqXvfgRgByBz3WgGUCjf6zaFggBWEtIJYM2g0pxphBYBAdSz+5kDH4A2w4+rbrQigIWVrWHdVQEsOlFtxqPu3O+m6aEWAIulmyklLdpyGeEn0y1DsJMbjtwsgpKlN+raOZXJrGYtAGEHIdPjrCfHo+9aEOCZhxB0Kf1g9Ku7JAhgvNGOBGMB0BArzJr3AqBrCEaZKi3DKr2LAbA6hQJQNSoNdYcDCXgOmylB+tp5kq+AZCyI1T4VgNu6KeaEucQF0JhqBPRyw+IYbXiTZ3WacigAC7i84KUAb0w0s5MWrAooYJPvVsOVrIY+AFY12KIF6z9D+TiRWQNi1RkFZEMCga0hODE2TZXvZkDE8KRvAtGEFSYF0HOoeM88Yijms0yFSX09G0EdNRpQpte7owYAIySayenvYUyWaIVpbKKJsJg9jPAI1nBcilybkr0DYXfOOmMcQXjkGjGcaZz5RsUKAI3vkjcjFFqiHQUjyFEyDddHFgSASG82molDh9EyMi4IGHUHRvc/ywjfAD/LCD9AGaHOlH49aW5xtqzGarrjNgBScOFJvrl9/B7fXKMZKAK344LuKpEBCWROZBHdbuM+bpStgfl46KDsjRVXnlsOn2nKCCyq7MXccQSqrf3oaVm9KFvDUYtZ/HTj5Rzr2GlRIJpGhUxruuMaJyEgcm2tBuC5AWHsnWhb3mA+s63UA9mkKXGbFlMJibOB5yJgeANzE8TuB2oykTG/a6piai2BjlCKOWle9CphRtoLIBLly+3SPQ2/6ETVENp1kbrJsoQmr+Oy1ozAajMXroN5HheLqeluANG0QvUZ+l4EhG5OWiZ5XgZkbH78fl11GRBMpij0pH036s2vg32ZTPpK1fBptpMtyhdYw55pzh1OjI0gJgH384L4MgkYLg40RiyzSrLIswYPEyEOp0pWHGf8uMjTQzMsGWgrxc+WtB+uJe2m9f74LWlifAFLtgXb8TctnHLhooslkWJ6m3gLqqD+bFpcBe1r00IrJv7lLbqmpXHTAixYmtu0GMsMdQ953sIsWIjYtEgb+U0LtpXfzh/keQu5We+mRd3Ib1rgrTxvsbfyvIXfyG+eCAjmjJsnCKZDbPPEwcrzJxSCLWubJxqCRdTNExDBi5TNExNjj5snLMbeN09kBO84Nk9wBK/LNk98xNw30/BHMHvg75ME4z3++kmwFMXfVslMUY+z2rheoGb+Lkywx05oGcAogtDEzdjhjsahiiH0ilIwShJ67+sxCODplLm43onn2yZTcd/ZUs2bG76R5okLP6Ywm7FfpwQ3Pz3ciOsf3185fnj49OnlkeT6Pb6K1I9eXlTGt/8B);lineShape=1;" vertex="1" parent="1">
                    <mxGeometry x="76.12801520457015" y="382.16713851170266" width="198.33917165479534" height="198.46897900800627" as="geometry"/>
                </mxCell>
                <mxCell id="5" value="" style="shape=stencil(lVhdb9swDPw1eSUkUaKk5677HwWarsG6pkjTffz70TDkhrR9w95SVyeLxyN58oHv3p8f3o6HFN6vl/P346/T4/X5wF8OKZ1en4+X01V/Hfj+wHdP58vx2+X88fo4//32MK2cfv04/5x2+D3jIpU4gVL4Mz8oQmF+8nVe/3J6vVmfqbNdH6jn/fUxUCoGkJmKAEChUA2AKwZ0yjYETpTTPkBjaM0AklDmfQAHKt0CIuUKAIWaZSkKMThSDlTtG2KkCGjNhUowAIEkaZbYpiFRAQeaVGD3D+PB5npJxDZrmRLYXzJVm4OYKDQAEOouaYEEnKhGnzSOg4NtQKGebAgaM4ihqSxczJ0SqJ1WKIotnja22Ab0VZYrhb4P6Mp6NoApKqCj3ihZlhpDlnofyl8AMgp2pwEEL6WGadJXNJuInmB9ahDd8toLZaCNXinbqPVJQ4DixaSHZJQIpmwTccPDNiJSqv4VqKSVRba8Kg8R0NQq1eJpakAcmllXpJqIDsShAMerHrJiQHfaEFwR1bcB1WvFLImdDi3CvqF5EKs+rXPUuzXVLXhAAEdS1t0MVQDKg4qzuprT7g2apSon2kxPrQcF3Vd5aHD+TABXcnFMgD0Au6LOlBFLjYKtIKUBTYgulNyRlr6w1yzjquI6akzRi++zVe2Jz40UPVJFE6KNzrgAhAQEvQ0AjWk9tFRLyMtU8eKri3/aBqSh/mVolcHb9mivvpGp+2ggcWo2xBZQrvBIpfqK40YC5F3yylMGioBWBbAFqEVsyEf34Y9uTCi0iNrnXAzYz2iIxaqVBQOSN6G8tIVtI13HNFjyoP4D5OGTk5vbA7LqsQ4HtgAK7Hxqm5uNQSJVEEPz2lOjiYxx9T5a8O1k1ZSkjQvRtpCGv7tZj87DvnHretSHkx/pen6k07har7UJ9g9+LmjxC9g/+HuD3gyQww1+KmgzyHB/Zz5Frw0gX8EbaLXoyEAH76m01zC6rf7nffvf6/XH5+X+6fTyMn8buP2//xigj+YPCXz/Fw==);lineShape=1;" vertex="1" parent="1">
                    <mxGeometry x="57.37492618584929" y="382.12560454821164" width="45.053120935327456" height="30.540191440428316" as="geometry"/>
                </mxCell>
                <mxCell id="6" value="" style="shape=stencil(nVrLchs3EPwaXlEABsAAZ8f5D1dZjliWJZes+PH3mQ2D5aIhNuTcJHJ6F/PuGfAk777df/h6d4r+28vz0+e7H+ePL/cn+eMU4/nx/u75/GJ/neT9Sd59enq+++v56e/Hj5f/v37YJLe/vjx9357w84IL2dW8oaL/dfmkOR/+/eDPi/zD+XGUb2mQD9EVTwDFBRkB6rJSgJQBEMW1QgF5PJLp8J9StwDqB4BkV4QCahwAKTjlR6ptBBQXKwWAWXNwIXJAHQGFO0771x1QgvONA8bIKOZ75ml1YXyDRifMDwbQEVBXR4qjH6q4xPyg3eo7QF0jb4h2YkFAII6LdTqSvZO8wUItFAQkYqVkR0oIYBmXvfOgg5mVWClbQhYEZKJ0Sd2vO6DRN6h3OSIgEStpdkkRkMkbqu814vgGUmZqduIRIKQINDPrBGChYV8r6JBcIilqgAoJ1Hp03QSMSqu4THQwQBt1KOoq16GNjivRpd8CXKPrJmBUOovzXGnQIVm0kgTarDT6IS11gHIv6pQfCVJUAgdUp9CyrCyQnLaUr9BFqytMBytbY4oGK5XsSHFq7ImWe9X+vB2QaTHW4Mroh40bsDIz9YetrzKA6QAAK5Uk43LFPm1mTYkApHflHdB6aXu9etfu1wOAdaCUsE9HT2urWLQmBDDqYB1IKwIi8bQFc2oTgBwpKvYHAzCCZQzPw5ECtZK5CXLaAJU4zoK5TH5Qxvk8Kr3RFaJ06Rl/yJ/MCJlLkNGePt93lrB3Exp4U7cqrlBxiOvUk/WGOHSq2DvRDV2BrAYnJI8F2YJ3QoIhu6gg7lnhcj6BeCSRY3UW6iLlqFP/i5yh+h6FV8NHFjW+58XVr4FxbN/bxDVsPDH91PrsA9aXeojvxuFjy16/D/KNyOepekbaJ8WJ4vMLMw8SqM1eNE0UzROIt3wPlZ2f9VC9JQ7cyQl9OqSJ9JJyQ9eMgVyJqhFz1ixDAjlhc+ddq/SsOIiTrLIuijmrJGfbrGojUfCb4sakkLLS/mnNCvyqdKFhpo9jTWid/b0uX9D2lbIeiX1CvcqzUUmmjUztBns9FDzuVypNqmTmw9bGQi37aYTmA7ERWQH7s25lrBBCf9/OvB7LU78qfQK/xWth55bp5LmtUWCA4cNz7d31WhhoEU8YD8I7YnNlkmctMWGyJ8rV2tShrSoLB0CTs1EksFm+TivDQFdVreFuy3zMKIwB4EiWdUKcYIA2BsVi6GzzHMzHWgNA810Mzm1aLyxG89amwObD//yGxXph1mGxwGgTH1usSDYALCX5Eib4eTGU6Ki9vWLUuvkVAKKv2QzHPJdxd2uPUJaikw4Htd64P2t8675t6NJ0JsbTM25VGt8BlmmVZABhAMExxgoD23lYOMOcagBWilPrne8AYDuPedtrALbXn/fJ2xsYu5g21gZg7WfeiW9KM6K5L12OAHblE3HG2o5Exw6YVhuv9zoRDH4NoJ137/L8nkGRIC0uMqbV2eKmRHtR3Ksev4rRiZDwoVV7H9jrNr9MMvmRACxuqxT9u7gOUySQi/u2aTu6uNBTJHiLG8OKi8jFlaSFO1RTfue5X7ccxlzGaCuSC35pW3HhZ9FJTtPmqZWVrIaHL137WxsJmG5yvyd548bD+gLrxwGDga/WzdQQbAt5Qe64OE/CRrnQNyERXNgz943129xl8nD3wKPhf/xCYCFvf1x/jvDp/PBw+TXD8Xv8+YJ9dPnpg7z/Bw==);lineShape=1;" vertex="1" parent="1">
                    <mxGeometry x="144.0145718353914" y="259.78102325785585" width="61.72562490354767" height="56.0892434966845" as="geometry"/>
                </mxCell>
                <mxCell id="7" value="" style="shape=stencil(nVpdcxs3DPw1euWQBAmSz2n6PzITp9bEsTOOm49/X7AqT8elbjXpm2xhdSC5ABbgneTdt8cPXx9O0X97e335/PDj/PHt8SR/nGI8Pz8+vJ7f7NNJ3p/k3aeX14e/Xl/+fv54+fvrh27ZP315+d5/4ecFF8SF2lHR/7r8J7nk//3Hnxf7p/PzbB/TZF9cC9Q+hck+xHuAPD8gVOcTBWicALaE/9Z0BJB5yRJczhTg8wyorioBRFfmNaTslAOSToAcXGwUENoMyE6EAIIrZQY019iivavzojW5zLbVO5ld0uqUuNRcnu2LHQyhXnPBz/bFBbKpFVdcvWuF2deZRzW5Svw3+9n/eocVMtzdAMUVBihj//YAcgQxICsMUEmwxexCWADEJTsEv7jUyKFJXE7BAJEAdOzJHkBcSn44sAeQ2LnG4u7gPHmCxWIQBAQSO1ldWqgRyaI1uLQ8IRKXNLu8AkiWLN6lsqyB7FJJzvvlCYR8Fo2Qhw2ghBrVFj1nmNroE2pGLrVtVUcApLedDNkl+xrpbXmTrcFSEJTDPOrXbUDFWmJZshIu9U2c2drJQg7ONjHMT8hCI84ACaqVjqJ9BCgzvaXR4mPHFGZqiIx9OwLo/ITIE1kLTuZdinFEyBGgLjIjsV0quIZg28DKQ3SaFwDhkgVQWQBMNZSI5DMAiwdVpxUBnkScUc0X3CUhAFMhIGSsiGXC1uwxHoK6SnYppUUf5lGIbxcU0xngUnKNkE+2sr8BhJ6DWBaCbY1UmUQdRXYD+HuFPUJupVXXjrVBHqM5w061oqqnenWT5FtScpn5syiZPKLp0B4Ut1NCbPMHtGGkUtLsGwQzPzCP6zWxS/yxnxMBe0/8MXe1gH1g9jJ6qKu9kiJiHRHYB6dcF4I2j1wWZiR0opXc7CG/W2knfFh1anGe2SfsarnCs+U1EGzcn7BIyBFwR/wRkDojEx/Fbyiw3sbsTZrN9kpLvsVXibD/LEv3eJzjK1EBHApq8q0jPvJfkZ+ZDQmsMGI8Mv/ta+jV/ChsR3yIS/yyePlNewnIB6H5UPKg+3X/M/FfKvI503qRrPPGfM74kyrmtzKa59tVXpamjk5ccsMpU+PtUBrK6mrPhkzasNfv0wuyAFP1KFOMcUwueoxIAyQ2rVhTtB9N4ZFGRl1zB5CRpAZQpsIbiurrrO1gBOSxaeyVmay6P2JO1BZKTIa3JVMY9SKbGhUs9RZ8kbUSBdshUUpWA0BxsnCKbA0m/2AW56mq7gCQT2kE7BEgQz2IVIAYAAYQmunUxQBAph5TDJBRt1u/w3qPllATVeFdpox+bD+QY7sUR0+5ZY1IOzRrGkHG9pPhnTL04kZ4Vgj7yBG6G8+lYw2YmSxE2FSxLGQyArM5p7WZXhHA1K8W5EYHkIBQwaM2ABt/W30APd6fQHbJChAk/A5gU8WKue+aF45KKLQgBmCToH6HEBYACQjrS2HsYgCm4q0vrcu2soQft4jcA5hOEucXlwoXbiB82jb1uA1IeH/UAUyqWuFdn0DorcuuKg1RwUxpmY1Fw1KmLcmw+rOU0FpoRfR4ZpX3ah6lXqm0lwrLhJPP7uJQvrsBJ+t1Ik69TMyxSbaMSclWCxvNwWm5WtORMW+nCqzmVpxZL7hM4lOmgiSjzrNEQId2yOeuXyifM7Re/DpUR9LZSTZ236rYOt650LVyM/8+vzDWcSt57XTYfXTBQiD0zmGrEru5Brs1QUURR19+uxaPorWbstALxAbyehz1bfWBM5NAZxq9G0i/Yx9w5sDdMXsck9LVGk0EZ0psM80eSjY/q35LD9f6lAr/482HO/b24fqaxafz09PlLY399/hahv3r8kqHvP8H);lineShape=1;" vertex="1" parent="1">
                    <mxGeometry x="403.7711291876483" y="130.77854237402858" width="71.03074040813658" height="65.63308191861529" as="geometry"/>
                </mxCell>
                <mxCell id="8" value="" style="shape=stencil(nVjbVhsxDPyavOrYli3Lz5T+B+cQSk4p4YT09vdVmnqJtdlZ6FsInqwuMyN5N3zz+nj3st2k8Ho87L9uf+7uj48b/rRJaff8uD3sjvZpw7cbvnnYH7ZfDvvvz/fnv1/uTidPn77tf5x+4dcZlxJFPqFS+H3+Jheq5e83n8+Ap93zCGAZACVSYAjQOgIalQAAlUobAFIppGUAF4ojoCZKIIecqI45VKEgy4ASqOoIUGogpKKUxrJqoAxCEqEYPEDzMqAyxTyGxNQqAFTKaSyr1Q2EVBvJmEMRKiBpi7iOOWSlqBDgqMGNEsjhBCgjIMCQjAhtfEIqvdDX+5B71SeAER7kUKonX4qUQEhWE04zAAgpW4ryEQBPAbwzJFNcdQCl3JYBUT2XsnTRXgcI5bEP2ToNyhqZdHyC2QxiawzdtiZAgq5hLqP+ARWkkElGYpgpoBpNFnQhBmRKwf++GTFHdD44sUVqoKKh03iSjuKW+XqazSKpsVcaMwUQj/RqT+cj/P1GLfvzAdTHGBTEAwQBysxcmBKwYFPBvwAuSlQRoBEH3wNFpDYLdk3Gk81C0rHLxqICJluslMYcjKYZAbKfnaYDAfM/Rt9oExpKWklmym+AqJZg9ecD6MJsJJgVBSiE4EoqxFDIbpJnG9VQyG6Q2xCswN4n85/OCzZrP6BWzpstzCZgwkLjkUIxwYSN1cUJjQRMfbOKMj4gdB0t7YOOEZNXXnd2689HzhvhncgCdCIJfal5O48KKo10XLxskuHNLrppTAUoUk3CYzy1F/i68ybvQidNA2tvldroEWYzFTEizKaZNZ2BDbXW9+8LVkfAagO4pE3GaCNv2kk5+UrFA0p61S/uLQn0obF3FruGIO/V6pPW0iu9tC/LqJyWoXfZvuxCsrqhm5Gw35cvenldPcXbxekRgBw2wdQB8LJp+s+jvxiDGe2/4stklUYb9nyQa+yuueSRbqjV0nfuhW3HpSAK7y3ad793XrJbHwHvvMU3f0NYeU1g8nRDMFNEa4Ut0+49hLkOAsR+f7jYfxm1IFF2IQV42bSeuZxtMCNftQUyqgdEFJJ4i1kDqH9bsxbSjEcrSdtocrNzpay2XvirIG6cAZoLCVPjf15RrQHsw9sbsYfd09P5hdrl//0bNPvq/PaNb/8A);lineShape=1;" vertex="1" parent="1">
                    <mxGeometry x="486.57252853642945" y="84.35128550279603" width="33.56653695772002" height="31.294843928066825" as="geometry"/>
                </mxCell>
                <mxCell id="9" value="" style="shape=stencil(lVfbchoxDP0aXjW25Yv8nKb/kZmQwpSGDCG9/H213TFBWjiUt2XXB8tHR0fyih/eN09v61UK78fD/vv61/b5uFnxl1VK29fN+rA96tOKH1f88LI/rL8d9h+vz/Pvt6dp5fT0Y/9z+offM44DcZhQKfyZ38ROUv69+ToDdtvXM0DK1KoBpEAlAUCiGg2AM5UIAJGCGEDuFDIE5GQANVKpAFCpNwNoCe7AjXq2gEAJsJRlBHAGCCCkIsTFnqFTB4AqlJsHCKBVyoKlQokBoFPuCwDIdOfFGSo1AYBKNfgzNEBrFxIbUmMSFJKS6ACamQYBzYpPeNBwLaRkdxAZ+r0MKFStNHqEFdcTRRtSz5QDSJyGZCtO98wgJMkUm98BiU+CF58G2UFIrVGxmVZ1IddohYqjtYwgLwM0YitvDZJBPUw7uBJVloAJ6BmyA0SY6Yklm4faqN7Ig6uHEw3XMh2zB4QbWnImUCkgeRfv3mo8FVWcDGM881a+UXHOjNWewRliUCt1YtIKQlvIQhsVH0I/20P0QA2ISa3Pmau+QYBJ/s4FyjCSq4B2D0Bpd9o4I+5yS4lD/6ctcEspkVryAHTqrF2zekBBjVdreBFSAqnW6cVnrlFDAh9Gd5bpBGpU02q1pw0FaS/4YUY9IAN1L7RdGPbQ6AnKEU5X2qNtPAm3XK0Ep6JGAZROjNTd9EYdTXs8Po/1WKQabpY71nMcdH+uR32ElSB261H8XAYdJ0Lx/9fRu0/jMAnSW/Pry5hFr46q1icETnms04pdHwNVBNAeZjtzTCPl104stsSitnIgOaW02hTc0JxeKILbQeDAw8k3KfUN1Pvvvib9B0AfPm9lL9vdbr7UnX/3tzh9Nd8A+fEv);lineShape=1;" vertex="1" parent="1">
                    <mxGeometry x="208.18578082332215" y="222.55083337964516" width="25.86732235513705" height="21.348593413484423" as="geometry"/>
                </mxCell>
                <mxCell id="10" value="" style="shape=stencil(lVfbdhoxDPwaXnVsyTc9p+l/5JyQwimFHEJ6+fuKUi/Iu0ybt4XV2NZoNPKu5OFt8/S6XnF4Ox0PX9c/ts+nzUo+rZi3+836uD3Z00oeV/LwcjiuvxwP7/vny+/Xp3Pk+enb4ft5hZ8XXFSqckZx+PX3n0jKf/75fAHstvsbAAeq7ADM1AIAJArJAaRSaQCg/XUH5EhB7wNsveR3KEIl3wekRMknnexI5T4gC2UPkEwNHKkwJZ+D0ZABoCXS6nOgBMrQlLKPrxRBFVSo+nhjuYJ4W86XOQo1QJEqsd/ApMVyHxBDoBA8R5kY5KzTglMVIjFKulLIHlAoA2EYS8UnkUzuEZYhFQ8QmLXVuc0AiNcWSLy4E3cxLgJqIfHSEyUB0qtCyddBElXAUo1Uh8IpFJ8BkqeVpZvCMoBnrlSJQR1qHlmKDKVRdXSlBpXRZLSMQgXVuVEoYzxqHzOMPJynoF4os/5kEsCQtrFoRqmgXtA+B26KBrtNu+neyILRDnXcwYTXwGRQM8k4SjsBaWsgHYyesQ2b6/odzu0JfPLDgDoz+qxwftosy15J1rAZSCMnit4Amvkq0J5xwupnQ+1ELw/c0Nt90tLVzJfNXrs4pzPV3rHLAHOAIetEBU3c/vaGVnjLGEmyuiUQP7NhG+gKEpgNN5ufCs6/QCmcC2HGDwy3S50PzxRBuM1BXy4mBeXN3QunwxMje+93px4eoE8YE8PV4h9i426d1/iM4s11Bi/t42c5voxX4Imu5fg23lsKBbT+ZJvXWQBr+9E7/H8A7OH6yfCy3e0uXxy378dPDPvr8nkij78B);lineShape=1;" vertex="1" parent="1">
                    <mxGeometry x="165.79046232219707" y="283.5367606169459" width="21.567874518907047" height="16.462684981630105" as="geometry"/>
                </mxCell>
                <mxCell id="11" value="" style="shape=stencil(lVbbbtswDP0avxISKVHSc9f9R4Gmi7EsKdJ0W/++NAxlJWPTy5uj8Ii3w0MN9PC2f3rdDRjeLufTz92f8fmyH+jbgDge97vzeJGvgR4Heng5nXc/zqf34/P8+/Vpspy+fp1+Tzf8nXEBSpxAGD7mg3o9+T7bH8ajsg9B2ZfYTxbtCWpR9omhtXX7Bikp+9igknM/QiEFCG48MdxkQOIzOxFVaCaF0oNcBmTArAA5QXFiqg1Q58ABUnUAEbL2wAkirwMK2aQ5A5V1gNyXmgZQL8MiIEtbg80hogMQ3iRbJXQAUvWsPQiVqlMl+Zt146h2Ni4DKjBqgATpkC8TRO0BpQ8Ou7OQWXsQegeHfFx6ilcA+51myMZD7j6XuZRuQqoQnCq1CE1LBiKwE1IrEFgDmkuN1qCYPjAUp9MCMI1LyU26yX06pIyQHNmTpJOZ6dqvWCsranrLAKEjAkXaZCbuqiNr1ECdgwxt8SZOZEazlaPbOKmJrRIDeRNXgXQOSbTVGaBpRLXyJZE2J6S7AVl0jm1I5PQhUZ+v/9xwCS01NlaoRFw1Neo1yGVAsAMkG6M4G4hKp1oHNAL2tjTZtTtNiANAWYpal2RNemIswhg0Nb5s4uVN3WzWmwgR37uCutGZjawztGzLmh25FyrpNmz0LQKZx5hPjPsfb1v28vHvpfgyHg7zQ/Pr//ZlKUfzq5QePwE=);lineShape=1;" vertex="1" parent="1">
                    <mxGeometry x="162.83545359003256" y="281.30252141424796" width="9.650444765481325" height="10.366306263140586" as="geometry"/>
                </mxCell>
                <mxCell id="12" value="" style="shape=stencil(lVbLctswDPwaXTEg+ALPafofmYlTa+raGcfp4+8LVSM3JKPV6EbLuySAXYAc/MPb8en1MAi/3a6X74df4/PtOPgvg8h4Ph6u481Wg38c/MPL5Xr4dr28n5/n369PE3Ja/bj8nHb4PfNcJNWJJfxn/uLJ+X8fvs7403j+gJdARSq8UEjr+JDIxwrPFPM6PjMlbfDM6/jiiEOFd0wCAiqFXJOwkJZ1guN7BAsjR2IHjtBlw4WgHicRKeWKUJhcBISuSrZFlnWCBgq+JlgdACFnStzUFSthyjVOsjogJZJZqS5TCcQKCGadWmvNVIAQUVvllMmDE6JlXZcpC3mQdCwUauUsqwDclDz5+gQ7MyOCmanOIWK/mjl93aGRYQ4q5MouglJ2e0IyXZue20janNN0tZU1og4qrfk2hDNC7K2BQkpU0h7zFWlPmOwNTtBEqS7rRgPlQmVnj9ocqpPYGAMpkdZm2hg0yZE2gwaPMuvRJmvzYwFlMuvEfhyjHv2UAJSzpF2dg91i6NLqL7ng4Zzpb9Hg4Njor+nAizKfE4Q4tgQBOSiFGu9NGGC+uOx2xyc4vKWdGXbtJoDn7p2B4+kuaauxAN91eFcoAxd18ZgkAhSTpU3ueAfr39Uzk+6RC0fT28HD6u99Fm7jbfH/Dfoynk7zE/bj/+2b1T7N713/+Bc=);lineShape=1;" vertex="1" parent="1">
                    <mxGeometry x="180.89735489374766" y="282.29557483039525" width="12.724409127113177" height="10.801839539961861" as="geometry"/>
                </mxCell>
                <mxCell id="15" value="" style="shape=stencil(7VnLctswDPwaXzEk+D6n6X9kJk7jaRpnnPT194XqUhFBaWV37J56k22uSRDYXZDauJvXx7uX7YbN69th/3n7fXf/9rhxHzbMu+fH7WH3Jk8bd7txNw/7w/bTYf/1+f74+eVuGDk8fdl/G/7hxxFXDCU7oNj8PH5jC3n+/c3HI+Bp9zwBZE85aUDyy4DExO0MbCjaZUC0FLgFePJlGeBlAaUFRHIJAAyxbwCOKToACJRDA/BMziwDgszQLikECmiGQrGdIWQqABBkxbkBRNlWELQswCqAI4MAiYxrAYFKBoBM1rSAQoxiyOTaoKVY/mzD0pKSAkQyoFqDFEKb6VTIohk8cRtDtrXg5wGWfGwBngwoDZ+JWwLlQB4QyAvjWj5kCRrkwVtyrGcogHEuUQk6hgK2VfjF3ZJcXAbYuRgQp60lDl3QIA+JctYhZES4GuA4nuF4rvQdx5uqa7PjDeW2LFKq7FgYb9q6S44i2KB+vCELx6v1xEgJFJHE2xJH1ALJS7efIuMGEE3ypQSykEEV1BWEiEEGCbBj/icAB3ZIlmTUFhmoFa50AungDCLyXklwqURaMirFZKmiAGYYlqTSlmCaBaCcLXIVg/kldXYuKn6ed4oTMci0eKdXM7gqykvOpgGjOc53GN22ygwJxBA9RQWItRznAUl3SVLeyDulEJKqJQ8bhtQJQMSNW5Q0KUXyZIHviNtn5Z0ZSowwXgHEO6HZpupjExFOyM65asqJAJ90H7ayJO80YCVooahP52yrMM6qTOPECcCrTOPSEP/nNtMrxScdhuq4V8pbehhl5ysEev/5RIqKqGiAg34bu8StyIz4X1EzYCEbtFqpt0glmGFwZJW4VE8qZwBWVKNrqyCnxZRbqSy5Osbi2aplnDUG9rdDfbeJKKFSZN53cz0OjgA5lAJA7+xXaCaValy8mVRCef1mMp01/uLNZNcoXbiZbJl5jWaSNQA2k66ehyYAVKMu1iPaBAD7qr+5MWid6v+NwdVuDFB/e5kbA1Qa/+TGoIsB3Rg46dOi3iV0C8hBzyCZRpwWkVG+I8USwJLsSPnxUi/BJkZEwHTXhgUZVaDQEohtzcx8DL5W/+i2eAbX9+g1k0v9sIpZ/h/Yv+hobIvb1rPWiZe9uFnob5MN5M7MdTU0qsL6ZkvWD8gsrYq6A2CoRyVqp3L1iD8/PndHVbIgX6VorUhQgSfN2dhMwbPzDEDM0QNEvyTrajtzYszCC7hJ3aYKVS3KQpc1m+ELgJmywCJ/9muSEwDy8P5W5mH39HR8qTP9Xb/Fka+Ob4Dc7S8=);lineShape=1;" vertex="1" parent="1">
                    <mxGeometry x="428.8406543917947" y="161.3291634686209" width="22.132707170170306" height="22.713295706932513" as="geometry"/>
                </mxCell>
                <mxCell id="16" value="" style="shape=stencil(lVbZbttADPwavQ52ucs9ntP0PwLEqY26duC419+XgqpEJGQqBvwgyZxdHjMkh/Twtn963Q0U3q6X8/fd78PzdT+kLwPR4bTfXQ5XeRrS45AeXs6X3bfL+efpeXp/fRotx6cf51/jCX8mHGXUNKIo/J2+BIxv8vs62R8Pp4V9KihN2UdQuG1fMkifz+iOfWNkbS8O5XYb0Ot83gwQF7k4gI6sAZzQ+DYghoCgES2Cq3NFA7MGVGQPkJGyAnRCzU6aKlrUgOIGUTtK0YCO5AGCJcYiD+uljug6aslDdbjEwg3jE6M4UeeGbNIUEboDYETShWCwd0NG0VFL4tihX64IBiBs8oImBC2g0tCcG7hbBRUGOWQqdabOOyAhOYBabKk3AJJEyve4JGw2mhuDdgonqjaVHtOaXFU3A/AL90H/JTUcQYjAgubSBvl6mDvjJ+ndCGwAvoAkJ/dqNKOZK/w2wGV2edlonCA4WMlttDLRaDcaleI7DVw0+r+XfrId3w9gBA3YGBHSyaIZQhKVcwM1lK4A1Ofirw+hatlH1e1kkUB6QpDMRUdBMkeNvawGXuez+qF3ka87hKqbfeyuP6Ies2gUJNfeDGnJQHf8D+haO30uyfriY/NfXC0XRC2bjBCd5IhqjJLnYbpuv7K2seO95LoGY+/1iXvXwm17efjYQV8Ox+O0wi7/tzurfJr23fT4Dw==);lineShape=1;" vertex="1" parent="1">
                    <mxGeometry x="443.8861308677483" y="156.63640263608613" width="9.734869075981806" height="14.649046255048688" as="geometry"/>
                </mxCell>
                <mxCell id="32" value="" style="shape=stencil(nVrZchtHDPwavqLmPp4d5z9cZTlSRZFcsnL9fXrDmiWnZ7dVyRtFATvAoNE4lpf46cfjl+8Pl+B+vL+9/vrw59PX98dL/OkSwtPL48Pb0zs+XeLnS/z07fXt4Ze3199fvl7//v5lk9w+/fb6x/aEv656zmrZlIL7+/pFLxbzv9/8fJV/fnq5kw/W8iyfLflz+WSFnp+kfLFE8tFiPJdvFussH8y1c3nvlgOcZeGwh8dxUmjNqjoBF+JmhWJVndDM91khWQ4iBs4aKQQLSShEK7MPtVsrQqFYJoVqUZ3QLbVZAZEXtxTDcHFXCOYFMGK2nCaF0q2Ia43N8nxLpVoQCslbn30oSUIjwaQZS8VbFYFL3cLsdG4j/w4VcrDuZ4VspQqFYoVOCJZE4IqzMDsNI504oUQG3+0ajhV25OwKSFF3rlCdxdlphLIKDqhxWLwrwCSBpYpLnE0CHJPwAejv8wkAfBEnNDdYaFcoA13HCvud7ApJmtQQhznS4GYvwNcWtIJHnPKhjoQcChtTKYXGJ3gUE+UDWGi+Vp8kt4LcA5nkJZGh2lAcdNxQzSIR34D7sXwZDLFTwLDwWL5anZHXBjWf2UP1E/LKnmg+s7ygMBS/QMXKsoJpGwR393wFOlAu218VhMC4VM/NqfIfRjdxk8+CvZCXjLidbY4zH4VtvlAgTkUYChSxIsmr+QHInbFHO3CW98RdSSICaU/9S7Su5Nu48Jt8EGyNHO5zPUBIFKL9aIb2C7WmMiYyQr1FRRGJS6azLuzf+t1K8qo69TaOv9lTlDwAPOMhjVbpTN7P9uwt7unz6T6DpPW+pDBYOmmPiXThsoIESK5QLcvWBUsgBoyhLqvlRrtzEFDAu2hztqljNil2rYDySmkGXCgfMKcsJ6jeri+DBRRU5kOBemz0RWpW26rlfK2xfqhAJ5TxiFOTZvCh8wq6gFdq1fQ8uKU/3RIio8AXeaKFQlI+JIuBFdT4BQWCRoy6ScCdLE6rlhkKeWloVTMIhUrgK9rppa8ANNSss435FIc2ZsQzBeI9wDvqa2Wn+7jo095uNmlLUWUSgLCeoOFNEyEUJFrDwksf9F+BhyPEoSp4B26oEOmPTliwJAtWGM+7Q6sa5XGtHOk4xqUzBb6lqMH3PxSIKlFQmgafm0kgFF120zJNhTHcn+YDld0qW+1tFJmh4aOu05nh3UeFOWUZ7jxlwarsQRkrmVOOmZ9fLekYeJavOjsjz1Je+evYHj1LoRMufJ+qs21luHc3W6hi2JbhFLOF2r1gVqA+yXs5zmIYoS3b1hyKGNTKJAwf1IBXG/cYeh+MAczPlUq3w+teJOpxaq3mo4E4XXLMRSSMCfEUFInklT3rgB30AsJzJQ9yoN0aWx6/1OoLnfP6fJXEjRf+O9uf7NcdByxrB9D00kJedy51bIjuB3I94NFAhRzoemdEV7ptpZQLS9sManeqPHm+I980tXRGnde9EWBKeyDMbKp4tGXjj0DLdWLiOCDQanBGJncqsXUYeUYVnUzqEqvgIh4ugmwIa+HtEVodVTLrMhVGvR+siDSNkV46XdqioPfAt3cUu0KT4CuO45D9eFNy/E6h8giWk1wh5bg0Fk2+n0p9jHR7Z+Hl4jgVZm1cg3pNmMKyp62DFg4V4kJLRc8KcTGphrEROFZYVrVV00x0i0KVPSryixY3t+p7rJB4+42kVdNIWJaXLcsuGDxHOY0CrIYLj2ulBb4bkTlWiPwG7LakOFbwA5u7wgcrCR53UGEky/Dbqb4vxY/Th18Hbws49aKTq89WUoU9nush5FU9dGNRdmsJ9YrUjRX//QEi/R3XW8irRHC8aYN8lvZQ3tx6jhN52qh2/ZZ26Xi2HbEIwP7a7Q4QTeSAOwCQQrRbUqbKns3xHLU1iTJeeZFXLdt//Y3Jx/L4cPtBy7en5+fr72Hu/88/gMFX1x/PxM//AA==);lineShape=1;" vertex="1" parent="1">
                    <mxGeometry x="220.26724312967417" y="190.65349600387492" width="171.20320108571605" height="89.67349370024579" as="geometry"/>
                </mxCell>
                <mxCell id="36" value="" style="shape=stencil(lVfZctswDPwavWJAErye0/Q/MhOn9tS1M47T4+8LVZUtwPJm8qZjlwTAxcEhPbxtn143Q+S38+n4ffNr93zeDunLEOPusN2cdmd9GtLjkB5ejqfNt9Px/fA8vb8+jcjx6cfx57jC74kXqPFIivxn+tAaSfj35euE3+8OC3yh1Cw+USz38SFRFUOoQj3dJ6hFuRhCydTADokpVUPIGe6QMqVsCUwV+Cz6OxmC6BLAJP3tCUyx3yeoAc0S1EhGhEJszyF26hGcW6AQLEF3AD5UJrFhDYUEmFQrifUhMAVgUo/E1qQP8ELR4/8HYR2vWvV4JKTebmJKwgDfvY6EMrJfT8iuX4nx+q0bfKcMDkDx7ojDJcLrhEo1WoIQIw80E63HQRMBmZTmxFoQOiKEOYQLQs33CU1jwt4HlMytUms+Sh3IohVqziSmAnxQglhCoyAQ70pkplyhBw6PS7CGyOVBIAEh1TOIVndaYZEqEklzeKjrTEUcPmOZZnH2N4Rvs8Su8ako7zXP7PqFAohP4It/1wOuoOHoBuLSRkMMFKEeROdxgl1ZS12+yTOY+kIintBQMf0sQecIp6KIe2CLFFz5zXNnX284ibrtUCni2UV8WCVAQtaKaneQAutd1vppe2AOVNCk0LwP2tkrcFqSr0ba2eG0ozs4ddfZyHvzVLBqrYUKyGdNx27F1zJMaK3Q0fqgJSShiuELzDVB1qXkJ8KxNQKtVgrs8RXgLy3p2hFwyZNZNYsNGnAgrRiEcifMHWwRIDS6BGKrCa2xEZR49lP/OAmAE2afBuPsBkrqTUHV2bCA+PAslwtePQJZw/NsfFFoh+t/9lb0MV4frlewl91+P93glv/9lU0/Tde99PgX);lineShape=1;" vertex="1" parent="1">
                    <mxGeometry x="88.74159038580763" y="515.0858594503907" width="38.5745393218416" height="32.770739929922456" as="geometry"/>
                </mxCell>
                <mxCell id="37" value="" style="shape=stencil(lVbLctswDPwaXTEEwec5Tf8jM3FqTV0747ivvy9UDRkTirbTmyxjRWAXC3CSh7fj0+th8u7tdr18Pfycn2/HST5N3s/n4+E63/RpksdJHl4u18OX6+X7+Xn9/fq0RC5P3y4/li/8WnGeql9A3v1eXxQmDn/ffF7jT/P5Lp4deTcAsqeS9wF6goQBECtJ3AdIoCgDICQKbh+gf5exBv2E8D5AE+AxJS/k0j4gFcpxAHCgIPuA4iinMSWYURErA5PzID5THBNy5ABFlclnEy+g4Boojyp7SFDNFMqoGVXAT62Njt52lMD32fX6OkG47fQEkxFnYkRRpjKmpBzBGiLxqLGKXIF1VIRiSI1UUBeVlnEHJJIKAL0r706IgKXF7MXWEIAQWXWqliWPAJn8mBJrDaDonBqJd0qj3tMTyuiFTBV4LVcqtlcFec1b2ZgSmF8l2d52xEC0qq298TKKF0p2VkAvp5bu+ywqKL7YcZrhvFanVcMPU0A+qJTHHuJIGSigGQUD0E8gayZi4wNpJO8CthsBiax705AaWlt93HWe4tgVQZ0Gik46fcaRHYUYpBRKk6kBUqAEzC8bltR7EQinnJitoBOqglZVq/NYgxJd0ZzvVuyA0jbdxwBvryPaXRHoUDeL1uHVma3blvYFB0Q7grWCiq47dk/pIoqgt9lOL91DCfSRa07p8dIuZDvxbvSazqcC+Nks5mVrAYld2y89Hq8o3sQLHKf/e6H9d7w+vN+eX+bTab183/9vb9v6ar2py+Mf);lineShape=1;" vertex="1" parent="1">
                    <mxGeometry x="142.69639358799418" y="483.54884525772627" width="23.280860009459502" height="20.34767627310839" as="geometry"/>
                </mxCell>
                <mxCell id="38" value="" style="shape=stencil(lVbLbttADPwaXYkluc9zmv5HgDi1UdcOHKdt/j5UBdni2poiN9kaijucIZeDPrxtn143g4S38+n4c/Nn93zeDvptENkdtpvT7mxPgz4O+vByPG1+nI7vh+fp9+vTiByffh1/j1/4O8UV0jAGSfiY/siNlP/9833C73eHBZ4TafEBlVJYD5BIjX1AIm7rARopNReQCgnIEKXnEAsx4JAi1eQCVKil9QCrSRQXwIWqrgdUe+1JM2ldx7dAKTt8oAAoN50/d8XHAvCJmscLFUC4VQoen2dR7uPbnP7Cl2EAhwvBRUklwhTZa2AcGtDAOKivqVxY3Q/IpDe2YHQkpeqPZN7NKANT8LbQRBHoUOtck0UGBULXRMULoSYEcqpx8N1mI0HQkaTPYN5u6EhCyXPgDJW2I4n6gEAZZYhUvNIJd2em1jljzngff2O9QJKBzDKLesWjeWTdyR7PVFH3l/779gF0nkbse63B+hi+dePOpj4OqF5iYxDQPKpUOxNliohCoeBtqoEa6k3zhOdsnRMEB/BXAopNMG9Tu6cKOJK9Dp50wb0Zc985Y7cCI6m1rudgVkygrNbr0WewQhdgPTNCp/SoPThS6VtzMfnvV2mWdZEANX8k8V41byEnCWVvJBv7aATzTYUUXp2h12y824HIVg1foOt0WsN7X4/jEuK7TaFYPSFf7vB2LYI2kP7SLApXEe03I2sCAXdmmrfLxYJaAd+vLrT/x9vDdXt+2e330/K9fN9v2/bXtKnr4yc=);lineShape=1;" vertex="1" parent="1">
                    <mxGeometry x="200.70619323244455" y="433.4243242841892" width="29.378854495790392" height="14.464743619946603" as="geometry"/>
                </mxCell>
                <mxCell id="39" value="" style="shape=stencil(rVbLbhsxDPyavRKUqAd1TtP/CBCnNurageO2yd+Xi4UcU7bHLdCbLHOWrxmKkzy8rZ9eV1Pkt+Nh/331e/N8XE/yZYpxs1uvDpujnSZ5nOThZX9YfTvsf+6el9+vT7PlfPqx/zV/4X3BRZIwgyJ/LBeaKS43Xxf77WZ3Zh+YYnKAWijH24AYqKgDFCEGHkRIswOkRqncBqRKJTqAZMrAQ2GS5gAWZKu3AbUS+6QTVeCgNlIfUaTIt+1VKLGzZ8ogHq2UwmDP4PstUIrj9zOwz8Rj/AHZV1IZ6lOQfevuTySiCvINfMqvA0KAFTUPwXcsJMoKU+DiAZVyAgDplDkBGlXkgXvEZ6xj1OXSi34GiAhgLPNtsD4LUE5V0iFppSQAUEblhEwV9KHmnuIJELGHPPZBqYGqzhH5Rt8JSKkO2qcGqGo1HYkEpWZNG+Jn2GRjRRilHDHtdOgAnHUzrz3rhCqo/ywcH0/p8/uvpWk3d8Q/UMLGH5am+hcklD7x/w/A5rV4pdkLEkEOJVPzXU7aR+BVQI5diKeyht7I669gG3OoNlMBwEao+JmtSgxCsnEVfB+aveRgWoQLD007Wa4DTMueq9Z7RG6bDSWMAIXs6yl+kg8/hbVT7cxDBmXNFC5yLkDPcpFy7RvW9Qwoe/XY24uawJQ8U20goKf8Qp22CwioKI+kUKMJqA+PQrDdhBFN/3HfvG9vh8/l9mWz3S678fn/4zJsV8siLY9/AA==);lineShape=1;" vertex="1" parent="1">
                    <mxGeometry x="262.7097130604434" y="370.6640225888257" width="20.562959323182213" height="24.21183404994804" as="geometry"/>
                </mxCell>
                <mxCell id="40" value="" style="shape=stencil(lVbZbtswEPwavQ7I3eX1nKb/ESBObdS1A8fp8fddVZCapaQt+iaJM+JeM+TAD2/Hp9fDQOHtfrt+Pfw4Pd+PA38aiE6X4+F2uuvTwI8DP7xcb4cvt+v75Xl6f30akePTt+v38Q8/J15ACCOJwq/pQ2mQ8ufL5wl/Pl0+4CNiM/gcEXgfzwFkCTGgkUMoSMkQElLex0uBdBugtH18aghi8EsJNvFF86MOz06BKiHa+Am17uNbBBXbAZA4eM3Xxh95jnC7Y2HV49iQnZRbRbYlpTx3cZvAyDYmJoizQ03gagnF3aEIiiVIgDhzlwnNhiQRKTpzoZMdVzs4BF1OvMohOZNN4NBXiR3COAl11QcnaV1edzo5w0R1HoSFoHVz1MaC2vkFyGm0MNpKDU5AKSHY0VO1OfHkgpB7NTtNK5qw7XJEdcRTK5JVf5p/sK2EhGLjGe3Ok782yMo/FjfjkdBVVBA9NWtINmX1ZPFC2iQ4lqcWma0SMruel2vvkeqa3hjl3FepZhRnjjSATs0tzIawPXhlnvuFIHOh9/xC7GQ0v3Gy1GQhNJB3Em7Mkn9W0ers1C2yd5q3vtXq/Z6HqT30hITqCCL3+m+E5KWA0jV6UeAmfvHoBS+zg+zg/+++82+8Pvy9XL2czufpbvZxvb+M6afpIsePvwE=);lineShape=1;" vertex="1" parent="1">
                    <mxGeometry x="304.82215334236685" y="330.81825272693686" width="6.150920570226845" height="10.949535770350622" as="geometry"/>
                </mxCell>
                <mxCell id="41" value="" style="shape=stencil(lVbRbtswDPwavxKiKInSc9f9R4GmS7AsKdJsa/9+NDx7oWLf0DdFubNI3lHUIA9v+6fX3RDD2/Vy/r77fXi+7gf5MsR4OO13l8PVVoM8DvLwcr7svl3OP0/P0+/XpxE5rn6cf41feJ94gaSNpBg+po2aiaedrxP+eDjd4COpOLxmamEbz0xZHaEsR64fYCcER0iVNG0TpFKujiACQ8qNavE5E5dtfLHPsY+IIgioNMq+Rkwpb+O1EEeHDxRAPDVSax0+CsA3SrGLp4H4W5rrPeMzBQb4Sskr1uaE1i0RLD9PYKGKImq9S7lSUUAoVHzKUYhRDlYSb6JYZh+uF9Vs731tWQekcqPIPaEB2TRSuiMgnUuh2IWkFJBRF1/eVOlvL613Tu0JvGS1TtC+NznNZtk6ofneaVRQCpHE93KmhPAWUGcMWFOV/q6w2wuoXAMpd/iAbKQkXjOGBW1mY1+fJcB1vPado7hxWh8/4wIZofrLgs10wEMWkfqKWsqKUjaCfoagPDfi4gkbQsAUWUi8KUqmCk4QK6I/oTIJIiSSztYB9oHYHe9PGJUHY1PCrOtCyFDp0QheaSt0QYPZxqAXzrRnYA1ud71sO2gw5H7w3IyKrddFJ8Q4KkDWStW3gw2vAPCJir+/bLIwqmp/yZtsCooa+jllgwjN/rvJWSvU4LPPu//jbfHvLflyOB6np+jt//3b07amd6s8/gE=);lineShape=1;" vertex="1" parent="1">
                    <mxGeometry x="355.7156440442384" y="279.88637388827726" width="12.687194501180784" height="17.97641183351857" as="geometry"/>
                </mxCell>
                <mxCell id="42" value="" style="shape=stencil(jVbLctswDPwaXTEkwBfOafofnolTa+rYGcdpkr8PNKpUg7E3vVEkliQWixUHuXvZbZ63A4eX8+n4e/s2Ppx3g/wYmMfDbnsazzYa5H6Qu8fjafvrdHw9PMzfz5spcho9Hf9MO7zPuEQpTiAOH/NEzhTnmZ9z/H48XMQXpqYOEGn6uhVfmWJx8YFCuB3fIgl3+/898Hq89gkUqmB/zZS7+wspSFiV2B/ATLVBQMeQMAkCVMqeohRxDkypAyjVAkiymkpf5YqqVkiSBzTSCmRRl6quAKWYbwNsv+BZyoU4AUCgnD0gLLxdBSRLunqWGNJqy9nnIEIJFM4AzdPKQg2wlEpfh5iogRwyU/B1qIvcr8crqVeGSQ+kXLTf37oT3Ke2XheBFOiolb4XLF+kbKHadafZC2h/bV/sQmGRYwi9UlkXodw6onhOxWbQncxTPUmpEoMTWl0MZZV2ooDaU0m8tK2doAvr4kCXACQkc12fg5USOYalmPwJ5lLoR2Iep77UWiBLkpfCrgDzJGAxvFrWqo2Afz7WLbG7kxEH+iHanbwpmZkHkEQMfcOZ5Bk5QF/p1qCvmmF4h2mrhVyND8Se1JqJged96Z7SYNUiJX+fYjNIR8vqf75Hvn+/2ODf4+dx3O/nt9Plev9Ysqn5oSX3nw==);lineShape=1;" vertex="1" parent="1">
                    <mxGeometry x="388.8928355603009" y="250.71237785412916" width="7.199648633177958" height="6.989482663284889" as="geometry"/>
                </mxCell>
                <mxCell id="43" value="" style="shape=stencil(7VnLchw3DPyavaJIgs+z4/yHqyxHW1Ekl6y8/j7NrDleYHZ7yqnKzbfViD0kgEYD4Jz03ZfHD58fTil8eXt9+fXhz/PHt8eT/nRK6fz8+PB6fsOvk74/6btPL68Pv7y+/P788fL35w9z5fz128sf8w1/XXBapJeJSuHvy5M2pIZ/n/x8ATydny2gdgsokhMFdAuoVUImgC41GkBp68lNQE6SqgVE0UIAOxvwisx2GKLDADSL1vuAolLV7hCkEkBu0rMFqHQShxylOBuq1EHcmiXbSJcgTe8DUpOSLCDLIIFL8HqwgC6DuDVmqXaHqtLafcBYB97WN2nEq0Ny9+uZBW0dd1vf1wlvrq+Sul/PXJo977A+EXtV4vDnT8TeKMP5s1B/Bhnq/f81We+s/3rabX2knAsSHCGQSMT/QaJjXJVB7A0+y8DQRpImSrb+LEkq8U9aOXslLIHphATrHwhHJ+uHJGsvclgJf+JOSyFcnQQAJ2o26XXQHXRngkKtmZaqJBsDTVTp4MJmjYYbWD0AZ4rd4ZtVt7Oy+jSLg9K6JSnWaDg6Ere25okUgxRiQ0eYHDOkEyf1vl631m+pdJtIZb1uO5AoEa4xvPKCFkypwy6VI6SXuGh0bzHUNZAgjLqkfCMSAGwH9dUARZSp7wii9khoLJhcdKiPzR7oLyv7Xb0Njfc6PUq0NnTlzEvSLLfh6ESMbmEp0AYYtJuaJc9S7yr49/KtBL8Fc1PNq8XcALyOoyxF61cQnu6QFv03QKJdKgDRcqNDnEnkAHDsA1sit2HsQp1JqFG7q2Uf2FJIqGczZEPdg2RS3uqQEXYA4qWGBqP7IymjKxIie6MTk2K0mFZZe6EVDtOHmxagnYNUBwBcOQE1IsugXQ0F+SLJIBitjq1tFZh7bt0nUGIVbnglA2AQt4IarpOcKsDJ5wGdRhr0dvMIBP0ggXwckA8cEC2XpqAzJUuL/Rs14AbmVhzABq5nWkbhpeByOtGaNQHpewBt1+LiyUHGFTczpNVw3QbUVQO3qqh0ams71cjcSzCxuum50HG77zIOkxa7lOj7ji8vtb3dCkRPjcgbIOzQrdEYzhoDRO/W1GlfPHXJter8BgCFOtsdtK/5714j7dQbgUtkhznt2MDlTuclTCOO3hiwMjEas4JrmDDxJWLDHLHcCB3oSIY2NdgdKpeZH3cGP+4MDu8MiL3/951B8ZMhcpL1znMydWMSajszuPgRY941khOl7fL0anJjFJ33eNYG5T7F+6I9EsQ0ERLNimSjNgduAihhvW8DpHXI24CyVOEKwLpClGHXK0AKCuvZdFWk64GY63ty1Cg0FWCDu/cAt+m1dvSzIZKZzbcZZdOpS6NGT27aIx18XgAgWC8dfMAANdzFBEo1q4IAuIqAhoYpxry5d4NbpoEDwLeRhXaFs84WD+gsDmE3uPE6q2PnpQNA9w3SwZFAZkeNA6Mn+8P3uFWrn5IOAoe2dD/eMmr8l69nRwD8+Pax7tP56enyre/6//7jHh5dPgzq+38A);lineShape=1;" vertex="1" parent="1">
                    <mxGeometry x="407.6987117013168" y="197.04557868335598" width="45.06736041037516" height="30.934400965283203" as="geometry"/>
                </mxCell>
                <mxCell id="44" value="" style="shape=stencil(lVfLctswDPwaXTEE+ALPafofmYlTe+rGGcd9/X2haqiasLWd3GR5VwQXC4Cc4sP7/ultN0l4v5xPX3c/D8+X/RQ/TSKH1/3ufLjY0xQfp/jwcjrvvpxP31+fl99vTzNyfvp2+jF/4dfCiyRhJkn4vbxQoVj+vvm84I+H1yt8odoGfFUqeRvPkUIZCEWp6jZBAikPhNwoNkDQ/vdKEBIQUqw94k5IERJS9puOmRIIKSe/glSSCFSNVONAYKUEVKpCacwbM8ybZq9SoCIA3yiIw4ewjW9ChR1egUQtk44bWJ14H68kafQRFfT9RqWOAgVqQFEjtNGonKkkSAjjCrZlRitU4nHLkogZEJLfs9koABu14EW14iiAoBZS8oQKSkFj1+QqpFgBIfg82KZRSNZPcvKyKiLUXilr4gosBSNkR2DoJQtJx3K2PQOvKhOP+NhFuI+/ybN9ANVy9Wm22kROZUrJ4ROyUbqxEQmqNRN07BXWHpGvraGP+AbbKYe196wCJQq4mLMjmK9RSCbpWP2254b6USZxvi7ESCSmNjZgKzUBWf4woTbicYjE1hN/f+qob3lJYeJK8IScYR7mSTyWWuEu9P1RK1Rdm2+kYIUofk5ZtSaQOKtFHhOnBc5m6ybOfJb7gOwqXZOVsA6vDX9TGmWdKwQ1ACrq8Q0e2tT1l4Cnee795GqBBDpY9KeRho0kN5IWmGXz3ehsa1ENxBP6eW7FSz/CbeB9PGtKNvA8lqYqMThN2QQbTWrHsQb0YZ8wm7sNHWk/eIr/P94e/l0ZXg7H43LjuP7fXzHs1XI9iY9/AA==);lineShape=1;" vertex="1" parent="1">
                    <mxGeometry x="389.87245312301116" y="238.72880953681306" width="26.78443393364637" height="20.974958881549355" as="geometry"/>
                </mxCell>
                <mxCell id="45" value="" style="shape=stencil(rVddb9swDPw1fiUkUaLE5677HwWaLsaypEizr38/eoZTU0kvC7A3x+FJ4t2Rogd+eNs+vW6GFN5Ox8PXzc/x+bQd+NOQ0rjfbo7jyZ4Gfhz44eVw3Hw5Hr7vn+ffr09T5PT07fBjWuHXjFMhlQmVwu/5TaOY/r74PMfvxv06vlJWFx+ZRACgUfUbpEwJ7BBDoBAcggspgy2ESnaALMumVwFNKfkkihADQFXS5gBSqUYAiJQ9oAplkIME0uJ1yFT1Y0DOVJIHNNIAAEyBHUATlfYxgJW4ekChBpRjJvVHMvET2CFVSl44VUhrMmuUHqAZmMmSbv2RtALhLuKFGpAhkXQcGQkgg0Dsva0BOi/0DDUhASqn3nfNGACayWKyc7xRDM4fE1XvolqpAUKjLu1hVQkNVIIdqUm/QwApm+1KV2sNcmrGjqlPuoIcclo8sGJVgbGn4vQyt0oCfGrFWTvfRWJU/oFa9ICMi7Ms3eEMqFRA0kmpeB2s1hCtk/d8ca5a+XVvFGLut8ggibbcA6scBLDEF/EZ6mak5l4F1CIvbiqTuZX/F892VXpKpVBEtih9ky9lWeIqoDBlr7LdnQk4VVJvi8lZoGMI9069MQBYisH31BsjhgGkoxXOMCIUfApCEa1vM49fPxOj9a1yvGrWNEEZ1ETsix/Xfi1Uff8KlNGdpsty7/GoLK25xXpPvPRlg89jV17UO/LV8xX2b3zamBI7T0O9pvnR64v9cPfMfDPeHt4H9Jdxt5vn+/X//UBvr+aPAX78Aw==);lineShape=1;" vertex="1" parent="1">
                    <mxGeometry x="153.9112398625191" y="325.56186656081684" width="13.541480747322339" height="25.95584290030422" as="geometry"/>
                </mxCell>
                <mxCell id="46" value="" style="shape=stencil(lVbLctswDPwaXXdIgM9zmv5HZuLUnrp2xnH6+PtC1VAJWBmybhSFBYEFsOTAD2/7p9fdQO7tejl/3/06PF/3A38ZiA6n/e5yuMpq4MeBH17Ol923y/n99Dx9vz6NluPqx/nn6OH3hKseXEcUuT/TjmdQ+LfzdQIcD6fPAEIOCkARnA1ARI4KEMQFGYCC6hQgOQQD4J2D04jCqNYRGVw0oMKl2wD5XfQJlZEMQC7N3wzIoHgbkLixOAMqglGIIP66yn3wsIhgj6ARQnUpBrEZiTUgwVcja/guaQJZlYPXOZe5MIv2rk+5UPOwzBESKfssERpFkN7PusyZUIwiUELUEaWKZDAUfGvMGSCdYlAUC7zbAsiMwFtCKgnstyQtE91NT54LvwyoyPqEsW5Gnce+1DmsNEadI76z8yQA7lo1gYzhEdZjpwD28ERqrN89nwlJ07QiATI/tZtPW2S8a+N7p4xRH9GKTi4Ksd9obwvGpqshNDruvHuEPt0VK5db6flZuz1ROnthwBYk1glkOMO/r00b5oTb/X5Lv7orgRoDyy0qdGj/DtkS4AjnO3trBGJArRvskyh82RCPiGOkDfkW18cTEIx4REuTbiC7XvW/gVxpiO3vtXWALD6ehy+H43F6XX7+3z8nZWt6ivLjXw==);lineShape=1;" vertex="1" parent="1">
                    <mxGeometry x="147.34265622946396" y="375.5526954883162" width="5.1505640059158395" height="15.989456450336775" as="geometry"/>
                </mxCell>
                <mxCell id="47" value="" style="shape=stencil(lVbbchoxDP2afdXYkmXLz2n6H5kJKUwpZAjp5e+r7c5ukQDt8GYWHUs6uhwP9PSxfXnfDJg+zqfj982v3et5O9CXAXF32G5Ou7OeBnoe6OnteNp8Ox0/D6/T7/eX0XI8/Tj+HG/4PeF6AaojCtOf6YuApH8fvk72+93h0p4hk7HPFYgCQINkHWAHlgAgUC2gIHC7D8gpQUoGwRoThy5aMYDaIWEA0Ahs1q1DCWJihmpDUh5aQFNhYJt1Vw/lPoAKFOvhgoebCCTA7l1ENGUCEp8EBwCeU1zsC0gOHEBGa5+B+n17zY9trzaoQRUQqr1fCqSgCOJrIAkkIqgBWkCTsC2wzcO1ANo8T7errH1pS9Aq9GB6SoeefUhRztwhN590rvcBlUFsSELzFbcBS5ctgBrOggLQDU8KadWQivXQCXrQSKyVtix1pTWYtnJVB52daNhIPK0K6EEvYfWFU0ALPOjeLS4kAQxYatBdRBxOJwK6+zFc3FdbWAR6sFR11l3jMWAQTwW0S1sySFCzXCC7UehhZ4+A9AiAElRLUVX1jMZZ1dMCVpSKKrBdYStiOPadBazIbblaqiuCrgBxWzV8MZTspbDOrN22JxArUyW2XzRpyThsO8ZZY5aEgYP4dVe4rkjz8rjdplcvqliW2xWfK/bNr6I4HkGvOTm2V02lB/hUzcZH6qWrmd3QxPaPvlBX7fXw/zn8ttvvp9f05f/++ayfpqc3Pf8F);lineShape=1;" vertex="1" parent="1">
                    <mxGeometry x="131.36033614202574" y="414.4843000860492" width="8.222493728148265" height="24.824823475082667" as="geometry"/>
                </mxCell>
                <mxCell id="48" value="" style="shape=stencil(lVbRchshDPyae90BBAKe0+Q/MhOnvqlrZxwnbf4+cm8usUgsyhvHsSCtVgsT3Txv7582U3DPp+Ph1+bP/HDaTvRjCmHebzfH+SSjiW4nunk8HDc/j4eX/cPy/XR/Xnke/T68nnf4u+AqI8YzKri3ZcZXpPxv5m4B7Ob9JaDAVQWgDF+vA7xzcE4hckFxxhEZVBSgJKRyHVDqut8KqB6crgMkAMcawCAja6b19wegIvB1QMwImqYLHr5FkEfUCKE6BYPYDCYNiKgGTVInnbTwlg2WPLzOuZBJkmtTzozkDY7AQa1nqaOlJELWZeaIYFAa5HwdEUsNjIyjR9UhpYxilDkVeDcCyIRIIyEVEab/krTBak1t9wit1Wo3UYE+oVM30WXROXSEUQOKNpmO8koANf0p0jakwdIqjQPIDBmFC+DB/mSwpqljAdI/telP22S8W430P20stBF1fHLUiEfXS8I6ns7VQEi6yp27J7b7+4hiyQhFd4IwHA1h+4SgdcqrrL7nn1oHkz4w4iFaNfkREHw08o2IugC2RFMCj6xnufzzQDziC4212PmWiMwDfIrcveazUzDxuuYx0lHE+HOnD5DB5+vqcd7tlsfZ5f/2NSZTy0uObt8B);lineShape=1;" vertex="1" parent="1">
                    <mxGeometry x="118.66613637062733" y="456.5931404485116" width="4.503603723589094" height="10.608399484444135" as="geometry"/>
                </mxCell>
                <mxCell id="49" value="" style="shape=stencil(7VjJUttAFPwaX1/NvpwJ+Q+qMMEVgilDtr9PK65RNG+kNj7lws2Iaekt3W+Znb95fbx72e+ceX07Hb/ufx7u3x53/tPOucPz4/50eMOvnb/d+ZuH42n/5XT8/nx//vvlbjo5/fp2/DG94dcZ55OYOKGc+X1+kosE8/fJ5zPg6fC8BDgxRQNi2AY4K9X1ACe2bgNsbO9rgOSlRgIw4lMHiIl+IUqu3fmQpSTigpjeA0Qtkvcbybk777LYws4H2523SRxx2Ijr/UUEimfnY29/EedIPMX15iNeNDqhJ4SXRAgUNH+sFOJrlNobYyQRV4uYoI4bYgwCZ/Xr6XknTr+fmWODWH+Ft+B+dlcEE0SpvT08VzZL6ql/gQq5Ke+dVLNFOzzxg6m9NKkuxBVYiGBxr5aQxHNAVuUhSyRyRE6VSSnTLCNJof9ChoAJwNsWkxngKe98FderJhXxxIeAf5seYMVnorOsdRm9FLsNQFFOvXRQRS1pBKm2vM4AcIlQA0G0Pbm9p4mrKLy9067SPFT4kDSAOV1BNaVPS7tfnbvpDAhUcbXqsHrOVmvmkjXHda7gW59Q/TIEmoiK9th7DXoZ9oWhhUfTusQ6wEnuuREtbcmlDgBHTSqpFd7FFwxxuoQhSrXNAesAJ7EvfShMhjhdQB2lINeebAJ6k3zhUcL7+lrpo3hC18lpxW8nnkUJYVX8Nq3ybCZu0CgDTNQYAKyjgHyquMIk1nRBbzUPos44JuragrjsWaRsrGkUT1hlQhnoy3HwbTTYLDSKfZnyeyplin1IDdMoDOjJBAVF5oNZ0SjrEFcDSmxNcNm0iEnYVZJqixjgSOaybZVxMQsUolG0RTXM53mEXW+8Xo98EGEkdAURXB8lSCQSaoDNakgE49ksMM3oaiExF+biqPldeddKeikshRYmr3cSZJIVY9sWrjltiVbKYeSLfJAe9cyHULOyQrIp1+hp7MIY/bESbheJj5Xw/66EWY8Ilm9HAKgxx/H7kHHDw5iTiFpA0Ki6a2hj9zogN4sXnYllwQ9TC/avShrNeBGXMNCSvPl5J10AHHEaO6QdAJUAMKIEdREH7hIfsHdE5XSkF2Vh0A66qyfUACD1YsBWyUa1EYCO7pgPg0lYzS3Rw+h0DnRCGMOKRZf2viFxObcLh3dSA93SMsDVt8CXAfjx79L54fD0dL6zXv5fX1Lj0fmC29/+AQ==);lineShape=1;" vertex="1" parent="1">
                    <mxGeometry x="90.87672150491869" y="479.65511000457286" width="33.402837565886216" height="27.07561461697719" as="geometry"/>
                </mxCell>
            </root>
        </mxGraphModel>
    </diagram>
</mxfile>